# xmcd
#
# Track frame offsets: 
#        150
#        20407
#        43972
#        63215
#        81022
#        95992
#        118965
#        133800
#        154472
#        171362
#
# Disc length: 2557 seconds
#
# Revision: 0
# Processed by: cddbd v1.5.1PL2 Copyright (c) Steve Scherf et al.
# Submitted via: ExactAudioCopy v0.95b4
#
DISCID=9209fb0a
DTITLE=Murat Basaran - Sana Ölürüm
DYEAR=2006
DGENRE=EthnoPop
TTITLE0=Tebrik Ederim
TTITLE1=Nankör (1. versiyon)
TTITLE2=Sana Ölürüm
TTITLE3=Deger Bilmezlere
TTITLE4=Öcü
TTITLE5=Sarmas Dolas
TTITLE6=Geç Bunlari Yalan
TTITLE7=Benim Adim Serseri
TTITLE8=Nankör (2. versiyon)
TTITLE9=Gülümse Anne
EXTD=
EXTT0=
EXTT1=
EXTT2=
EXTT3=
EXTT4=
EXTT5=
EXTT6=
EXTT7=
EXTT8=
EXTT9=
PLAYORDER=
